<svg width="334" height="83" viewBox="0 0 334 83" fill="none" xmlns="http://www.w3.org/2000/svg">
<path d="M13.44 25.16H9.92V17.44H18.64V30H28V25.16H24.52V4.84H28V-2.38419e-06H15.16V4.84H18.64V12.12H9.92V-2.38419e-06H0.56V4.84H4.04V25.16H0.56V30H13.44V25.16ZM41.3069 30.4C44.0269 30.4 46.4669 29.8 47.8269 28.88V23.96C46.1469 25.04 43.9469 25.44 42.1469 25.44C38.7869 25.44 37.2269 23.84 37.1069 21.24H48.2269C48.4269 20.68 48.6669 19.24 48.6669 17.64C48.6669 12.08 45.1869 9.28 40.1469 9.28C34.4269 9.28 30.8269 13.32 30.8269 19.92C30.8269 26.96 34.6669 30.4 41.3069 30.4ZM36.9069 17.28C37.1069 15.16 38.0269 13.8 40.0269 13.8C41.9869 13.8 42.9069 15.08 42.9869 17.28H36.9069ZM67.2175 29.08V23.72C65.8175 24.88 63.7775 25.28 62.1375 25.28C59.0575 25.28 57.0975 23.6 57.0975 19.8C57.0975 16.28 58.8575 14.36 61.7375 14.36C62.0175 14.36 62.2975 14.36 62.5775 14.4V17.84H67.2175V10.44H67.1375C65.8575 9.84 63.8575 9.28 61.4575 9.28C55.2575 9.28 51.2175 13.32 51.2175 19.92C51.2175 26.44 54.8975 30.4 61.5775 30.4C64.0575 30.4 66.1375 29.88 67.2175 29.08ZM81.0019 25.52H78.8019V22.12L80.2819 21.84L85.8819 30H91.7619V25.52H89.6819L84.9619 18.8L88.7619 14.2H91.2419V9.68H81.4419V14.2H83.0019L80.2419 17.6L78.8019 17.88V9.68H70.2819V14.2H73.1619V25.52H70.2819V30H81.0019V25.52ZM103.4 30.4C108.96 30.4 113.24 26.56 113.24 19.88C113.24 13.2 108.88 9.28 103.4 9.28C97.8803 9.28 93.6003 13.24 93.6003 19.92C93.6003 26.6 97.8803 30.4 103.4 30.4ZM103.4 25.28C101.2 25.28 99.4803 23.8 99.4803 19.92C99.4803 15.92 101.2 14.4 103.4 14.4C105.6 14.4 107.4 15.92 107.4 19.88C107.4 23.8 105.64 25.28 103.4 25.28ZM124.077 14.64H127.437V30H135.957V25.52H133.077V14.2H135.957V9.68H116.397V14.2H119.197C118.957 21.96 118.077 25.08 115.677 25.08C115.197 25.08 114.717 24.96 114.717 24.96V30.12C114.717 30.12 115.477 30.36 116.677 30.36C122.957 30.36 123.957 23.52 124.077 14.64ZM138.68 30H149.08C155.16 30 157.8 27.04 157.8 23.24C157.8 19.56 155.16 16.8 149.08 16.8H147.2V14.2H150.12V9.68H138.68V14.2H141.56V25.52H138.68V30ZM147.2 25.6V21.2H148.96C151.08 21.2 151.92 22.12 151.92 23.4C151.92 24.68 151.08 25.6 148.96 25.6H147.2ZM170.65 25.52H168.45V22.12L169.93 21.84L175.53 30H181.41V25.52H179.33L174.61 18.8L178.41 14.2H180.89V9.68H171.09V14.2H172.65L169.89 17.6L168.45 17.88V9.68H159.93V14.2H162.81V25.52H159.93V30H170.65V25.52ZM193.049 30.4C198.609 30.4 202.889 26.56 202.889 19.88C202.889 13.2 198.529 9.28 193.049 9.28C187.529 9.28 183.249 13.24 183.249 19.92C183.249 26.6 187.529 30.4 193.049 30.4ZM193.049 25.28C190.849 25.28 189.129 23.8 189.129 19.92C189.129 15.92 190.849 14.4 193.049 14.4C195.249 14.4 197.049 15.92 197.049 19.88C197.049 23.8 195.289 25.28 193.049 25.28ZM216.61 30H248.05V25.52H245.13V14.2H248.05V9.68H237.21V14.2H239.49V25.36H235.13V9.68H229.49V25.36H225.13V14.2H227.41V9.68H216.61V14.2H219.49V25.52H216.61V30ZM258.912 25.4C257.552 25.4 256.792 24.68 256.792 23.68C256.792 21.92 258.192 21.04 262.352 21.04V21.6C262.352 24.16 260.792 25.4 258.912 25.4ZM262.312 26.84H262.552V30H270.912V25.52H268.032V16.96C268.032 12 265.312 9.28 259.232 9.28C256.752 9.28 254.312 9.76 252.392 10.8V15.96C254.352 14.76 256.472 14.24 258.512 14.24C261.232 14.24 262.352 15.16 262.352 16.88V17.36C254.512 17.36 250.952 19.76 250.952 24.64C250.952 28.04 253.112 30.4 256.752 30.4C259.872 30.4 261.192 28.76 262.312 26.84ZM284.936 30V25.52H281.536V14.32H285.496V18.12H290.136V9.68H273.016V14.2H275.896V25.52H273.016V30H284.936ZM302.033 30.4C307.593 30.4 311.873 26.56 311.873 19.88C311.873 13.2 307.513 9.28 302.033 9.28C296.513 9.28 292.233 13.24 292.233 19.92C292.233 26.6 296.513 30.4 302.033 30.4ZM302.033 25.28C299.833 25.28 298.113 23.8 298.113 19.92C298.113 15.92 299.833 14.4 302.033 14.4C304.233 14.4 306.033 15.92 306.033 19.88C306.033 23.8 304.273 25.28 302.033 25.28ZM314.501 30H325.861C331.861 30 333.741 27.36 333.741 24.28C333.741 21.64 332.181 19.92 329.581 19.52V19.24C331.741 18.76 333.141 17.32 333.141 14.84C333.141 11.76 330.941 9.68 325.301 9.68H314.501V14.2H317.381V25.52H314.501V30ZM323.021 17.68V13.64H324.581C326.341 13.64 327.261 14.4 327.261 15.56C327.261 16.84 326.501 17.68 324.581 17.68H323.021ZM323.021 26.08V21.56H325.061C326.781 21.56 327.901 22.32 327.901 23.84C327.901 25.28 326.821 26.08 325.061 26.08H323.021Z" fill="white"/>
<path d="M0.36 82H8.4L15.28 70.08H15.56V77.52H13.04V82H23.84V77.52H20.96V66.2H23.84V61.68H15.76L8.88 73.64H8.64V66.2H11.16V61.68H0.36V66.2H3.24V77.52H0.36V82ZM54.1047 82V76.84H49.1847V51.6H45.3447L37.8247 54.88V60.48L43.3447 58.08V76.84H38.1447V82H54.1047ZM85.9428 82V77.16H82.0228V57.32H86.1028V61.12H91.0228V52H67.1828V61.12H72.1028V57.32H76.1828V77.16H72.2628V82H85.9428ZM93.3725 82H105.573C113.133 82 116.493 77.2 116.493 72.4C116.493 67.56 113.133 63.72 105.693 63.72H102.733V57.32H109.933V61.04H114.813V52H93.3725V56.84H96.8525V77.16H93.3725V82ZM102.733 76.68V68.88H105.373C108.293 68.88 110.413 69.88 110.413 72.76C110.413 75.52 108.533 76.68 105.413 76.68H102.733ZM130.842 73.04H161.002V69H130.842V73.04ZM175.321 82H186.681C192.681 82 194.561 79.36 194.561 76.28C194.561 73.64 193.001 71.92 190.401 71.52V71.24C192.561 70.76 193.961 69.32 193.961 66.84C193.961 63.76 191.761 61.68 186.121 61.68H175.321V66.2H178.201V77.52H175.321V82ZM183.841 69.68V65.64H185.401C187.161 65.64 188.081 66.4 188.081 67.56C188.081 68.84 187.321 69.68 185.401 69.68H183.841ZM183.841 78.08V73.56H185.881C187.601 73.56 188.721 74.32 188.721 75.84C188.721 77.28 187.641 78.08 185.881 78.08H183.841ZM205.201 77.4C203.841 77.4 203.081 76.68 203.081 75.68C203.081 73.92 204.481 73.04 208.641 73.04V73.6C208.641 76.16 207.081 77.4 205.201 77.4ZM208.601 78.84H208.841V82H217.201V77.52H214.321V68.96C214.321 64 211.601 61.28 205.521 61.28C203.041 61.28 200.601 61.76 198.681 62.8V67.96C200.641 66.76 202.761 66.24 204.801 66.24C207.521 66.24 208.641 67.16 208.641 68.88V69.36C200.801 69.36 197.241 71.76 197.241 76.64C197.241 80.04 199.401 82.4 203.041 82.4C206.161 82.4 207.481 80.76 208.601 78.84ZM219.305 82H250.745V77.52H247.825V66.2H250.745V61.68H239.905V66.2H242.185V77.36H237.825V61.68H232.185V77.36H227.825V66.2H230.105V61.68H219.305V66.2H222.185V77.52H219.305V82Z" fill="#48CCFD"/>
</svg>
