<svg width="187" height="54" viewBox="0 0 187 54" fill="none" xmlns="http://www.w3.org/2000/svg">
<path d="M8.232 19.24C13.152 19.24 15.816 15.592 15.816 9.976C15.816 4.384 13.176 0.759999 8.232 0.759999C3.384 0.759999 0.72 4.384 0.72 10C0.72 15.568 3.384 19.24 8.232 19.24ZM8.28 16.144C5.712 16.144 4.344 14.056 4.344 10C4.344 5.92 5.712 3.856 8.28 3.856C10.872 3.856 12.168 5.944 12.168 9.976C12.168 14.056 10.872 16.144 8.28 16.144ZM26.8914 18.448V15.232C26.0514 15.928 24.8274 16.168 23.8434 16.168C21.9954 16.168 20.8194 15.16 20.8194 12.88C20.8194 10.768 21.8754 9.616 23.6034 9.616C23.7714 9.616 23.9394 9.616 24.1074 9.64V11.704H26.8914V7.264H26.8434C26.0754 6.904 24.8754 6.568 23.4354 6.568C19.7154 6.568 17.2914 8.992 17.2914 12.952C17.2914 16.864 19.4994 19.24 23.5074 19.24C24.9954 19.24 26.2434 18.928 26.8914 18.448ZM38.0901 19V16.312H36.0981V9.592H37.6341V11.872H40.4181V6.808H28.3941V11.872H31.1781V9.592H32.7141V16.312H30.7221V19H38.0901ZM46.4469 16.24C45.6309 16.24 45.1749 15.808 45.1749 15.208C45.1749 14.152 46.0149 13.624 48.5109 13.624V13.96C48.5109 15.496 47.5749 16.24 46.4469 16.24ZM48.4869 17.104H48.6309V19H53.6469V16.312H51.9189V11.176C51.9189 8.2 50.2869 6.568 46.6389 6.568C45.1509 6.568 43.6869 6.856 42.5349 7.48V10.576C43.7109 9.856 44.9829 9.544 46.2069 9.544C47.8389 9.544 48.5109 10.096 48.5109 11.128V11.416C43.8069 11.416 41.6709 12.856 41.6709 15.784C41.6709 17.824 42.9669 19.24 45.1509 19.24C47.0229 19.24 47.8149 18.256 48.4869 17.104ZM54.9098 19H61.7258C65.3258 19 66.4538 17.416 66.4538 15.568C66.4538 13.984 65.5178 12.952 63.9578 12.712V12.544C65.2538 12.256 66.0938 11.392 66.0938 9.904C66.0938 8.056 64.7738 6.808 61.3898 6.808H54.9098V9.52H56.6378V16.312H54.9098V19ZM60.0218 11.608V9.184H60.9578C62.0138 9.184 62.5658 9.64 62.5658 10.336C62.5658 11.104 62.1098 11.608 60.9578 11.608H60.0218ZM60.0218 16.648V13.936H61.2458C62.2778 13.936 62.9498 14.392 62.9498 15.304C62.9498 16.168 62.3018 16.648 61.2458 16.648H60.0218ZM68.0348 19H74.2747C77.9228 19 79.5068 17.224 79.5068 14.944C79.5068 12.736 77.9228 11.08 74.2747 11.08H73.1468V9.52H74.8988V6.808H68.0348V9.52H69.7628V16.312H68.0348V19ZM73.1468 16.36V13.72H74.2028C75.4748 13.72 75.9788 14.272 75.9788 15.04C75.9788 15.808 75.4748 16.36 74.2028 16.36H73.1468ZM89.9104 19V16.312H87.9184V9.592H89.4544V11.872H92.2384V6.808H80.2144V11.872H82.9984V9.592H84.5344V16.312H82.5424V19H89.9104ZM99.7747 19.24C101.407 19.24 102.871 18.88 103.687 18.328V15.376C102.679 16.024 101.359 16.264 100.279 16.264C98.2628 16.264 97.3268 15.304 97.2548 13.744H103.927C104.047 13.408 104.191 12.544 104.191 11.584C104.191 8.248 102.103 6.568 99.0788 6.568C95.6468 6.568 93.4868 8.992 93.4868 12.952C93.4868 17.176 95.7908 19.24 99.7747 19.24ZM97.1348 11.368C97.2548 10.096 97.8068 9.28 99.0068 9.28C100.183 9.28 100.735 10.048 100.783 11.368H97.1348ZM118.905 16.312H117.537V14.128H120.681V19H125.793V16.312H124.065V9.52H125.793V6.808H119.313V9.52H120.681V11.32H117.537V6.808H112.425V9.52H114.153V16.312H112.425V19H118.905V16.312ZM133.257 19.24C136.593 19.24 139.161 16.936 139.161 12.928C139.161 8.92 136.545 6.568 133.257 6.568C129.945 6.568 127.377 8.944 127.377 12.952C127.377 16.96 129.945 19.24 133.257 19.24ZM133.257 16.168C131.937 16.168 130.905 15.28 130.905 12.952C130.905 10.552 131.937 9.64 133.257 9.64C134.577 9.64 135.657 10.552 135.657 12.928C135.657 15.28 134.601 16.168 133.257 16.168ZM140.738 19H145.442V10.576H145.586L148.226 19H151.178L153.818 10.576H153.962V19H159.098V16.312H157.37V9.52H159.098V6.808H152.426L150.05 14.584H149.882L147.554 6.808H140.738V9.52H142.466V16.312H140.738V19ZM166.97 19.24C168.602 19.24 170.066 18.88 170.882 18.328V15.376C169.874 16.024 168.554 16.264 167.474 16.264C165.458 16.264 164.522 15.304 164.45 13.744H171.122C171.242 13.408 171.386 12.544 171.386 11.584C171.386 8.248 169.298 6.568 166.274 6.568C162.842 6.568 160.682 8.992 160.682 12.952C160.682 17.176 162.986 19.24 166.97 19.24ZM164.33 11.368C164.45 10.096 165.002 9.28 166.202 9.28C167.378 9.28 167.93 10.048 167.978 11.368H164.33ZM180.308 16.168C179.012 16.168 177.98 15.352 177.98 13.216V12.448C177.98 10.432 179.036 9.64 180.332 9.64C181.58 9.64 182.684 10.504 182.684 12.856C182.684 15.328 181.58 16.168 180.308 16.168ZM179.9 25V22.312H177.98V19.24L177.86 17.344H178.028C178.7 18.52 179.78 19.24 181.412 19.24C184.388 19.24 186.188 16.624 186.188 12.784C186.188 9.136 184.412 6.568 181.484 6.568C179.732 6.568 178.604 7.408 178.028 8.512H177.86V6.808H172.844V9.52H174.572V22.312H172.844V25H179.9ZM0.816 53H5.64L9.768 45.848H9.936V50.312H8.424V53H14.904V50.312H13.176V43.52H14.904V40.808H10.056L5.928 47.984H5.784V43.52H7.296V40.808H0.816V43.52H2.544V50.312H0.816V53Z" fill="white"/>
<path d="M33.0628 53V49.904H30.1108V34.76H27.8068L23.2948 36.728V40.088L26.6068 38.648V49.904H23.4868V53H33.0628ZM52.1657 53V50.096H49.8137V38.192H52.2617V40.472H55.2137V35H40.9097V40.472H43.8617V38.192H46.3097V50.096H43.9577V53H52.1657ZM56.6235 53H63.9435C68.4795 53 70.4955 50.12 70.4955 47.24C70.4955 44.336 68.4795 42.032 64.0155 42.032H62.2395V38.192H66.5595V40.424H69.4875V35H56.6235V37.904H58.7115V50.096H56.6235V53ZM62.2395 49.808V45.128H63.8235C65.5755 45.128 66.8475 45.728 66.8475 47.456C66.8475 49.112 65.7195 49.808 63.8475 49.808H62.2395ZM79.1051 47.624H97.2011V45.2H79.1051V47.624ZM105.793 53H112.609C116.209 53 117.337 51.416 117.337 49.568C117.337 47.984 116.401 46.952 114.841 46.712V46.544C116.137 46.256 116.977 45.392 116.977 43.904C116.977 42.056 115.657 40.808 112.273 40.808H105.793V43.52H107.521V50.312H105.793V53ZM110.905 45.608V43.184H111.841C112.897 43.184 113.449 43.64 113.449 44.336C113.449 45.104 112.993 45.608 111.841 45.608H110.905ZM110.905 50.648V47.936H112.129C113.161 47.936 113.833 48.392 113.833 49.304C113.833 50.168 113.185 50.648 112.129 50.648H110.905ZM123.72 50.24C122.904 50.24 122.448 49.808 122.448 49.208C122.448 48.152 123.288 47.624 125.784 47.624V47.96C125.784 49.496 124.848 50.24 123.72 50.24ZM125.76 51.104H125.904V53H130.92V50.312H129.192V45.176C129.192 42.2 127.56 40.568 123.912 40.568C122.424 40.568 120.96 40.856 119.808 41.48V44.576C120.984 43.856 122.256 43.544 123.48 43.544C125.112 43.544 125.784 44.096 125.784 45.128V45.416C121.08 45.416 118.944 46.856 118.944 49.784C118.944 51.824 120.24 53.24 122.424 53.24C124.296 53.24 125.088 52.256 125.76 51.104ZM132.183 53H151.047V50.312H149.295V43.52H151.047V40.808H144.543V43.52H145.911V50.216H143.295V40.808H139.911V50.216H137.295V43.52H138.663V40.808H132.183V43.52H133.911V50.312H132.183V53Z" fill="#48CCFD"/>
</svg>
