<svg width="345" height="129" viewBox="0 0 345 129" fill="none" xmlns="http://www.w3.org/2000/svg">
<path d="M22.596 50.224C36.264 49.748 44.22 39.004 44.22 25.2C44.22 6.84 32.048 0.583999 22.596 0.175996V9.356C27.968 9.832 32.184 13.64 33.476 20.44H16.612V29.076H33.612C32.524 35.604 28.852 40.568 22.596 41.044V50.224ZM20.556 41.044C15.524 40.636 11.784 37.168 10.084 31.864L0.7 36.284C3.488 42.676 9.404 49.816 20.556 50.224V41.044ZM20.556 0.175996C10.084 0.583999 4.644 6.636 1.516 13.572L10.492 17.72C11.648 13.98 15.116 9.832 20.556 9.356V0.175996ZM71.6091 10.24H82.8971V1.4H71.6091V10.24ZM57.6011 10.24V1.4H46.3131V10.24H57.6011ZM59.6411 1.4V49H69.5691V1.4H59.6411ZM108.243 9.356C113.139 9.832 119.531 13.64 119.531 25.2C119.531 35.876 113.819 40.568 108.243 41.044V50.224C118.715 49.816 129.867 42.472 129.867 25.2C129.867 6.364 117.287 0.583999 108.243 0.175996V9.356ZM106.203 0.175996C96.7511 0.583999 84.5791 6.84 84.5791 25.2C84.5791 41.996 95.4591 49.748 106.203 50.224V41.044C100.491 40.5 94.9151 35.604 94.9151 25.2C94.9151 13.844 101.103 9.832 106.203 9.356V0.175996ZM163.4 49H173.056C182.984 49 189.036 43.628 189.036 35.128C189.036 29.688 185.568 24.656 181.148 23.704V23.5C184.82 22.004 187.404 18.808 187.404 13.572C187.404 5.616 181.08 1.4 172.784 1.4H163.4V9.696H171.424C174.144 9.696 177.34 10.512 177.34 14.456C177.34 18.128 175.232 20.236 169.996 20.236H163.4V27.988H171.424C175.3 27.988 179.04 29.416 179.04 34.448C179.04 37.916 175.98 40.568 172.036 40.568H163.4V49ZM161.36 1.4H151.432V49H161.36V1.4ZM205.887 4.528L191.063 49H200.855L203.167 41.792H219.011L216.223 33.904H205.751L210.647 18.128L205.887 4.528ZM206.907 1.4L223.703 49H234.039L217.243 1.4H206.907ZM254.666 40.16H248.75V1.4H238.822V49H254.666V40.16ZM280.506 49H296.35V1.4H286.422V40.16H280.506V49ZM278.466 40.16H272.55V1.4H262.622V40.16H256.706V49H278.466V40.16ZM315.922 4.528L301.098 49H310.89L313.202 41.792H329.046L326.258 33.904H315.786L320.682 18.128L315.922 4.528ZM316.942 1.4L333.738 49H344.074L327.278 1.4H316.942Z" fill="white"/>
<path d="M15.048 117H24.704C34.632 117 40.684 111.628 40.684 103.128C40.684 97.688 37.216 92.656 32.796 91.704V91.5C36.468 90.004 39.052 86.808 39.052 81.572C39.052 73.616 32.728 69.4 24.432 69.4H15.048V77.696H23.072C25.792 77.696 28.988 78.512 28.988 82.456C28.988 86.128 26.88 88.236 21.644 88.236H15.048V95.988H23.072C26.948 95.988 30.688 97.416 30.688 102.448C30.688 105.916 27.628 108.568 23.684 108.568H15.048V117ZM13.008 69.4H3.08V117H13.008V69.4ZM56.7033 117V69.4H46.7753V117H56.7033ZM58.7433 92.724H65.1353C69.2153 92.724 73.1593 94.696 73.1593 100.884C73.1593 105.576 70.0993 108.16 65.1353 108.16H58.7433V117H65.8153C78.3273 117 82.3393 108.568 82.3393 100.884C82.3393 91.772 77.7833 84.564 66.1553 84.564H58.7433V92.724ZM97.0273 117V69.4H87.0993V117H97.0273ZM115.141 69.4H105.213V117H115.141V69.4ZM117.181 78.24H136.425V69.4H117.181V78.24ZM162.497 77.356C167.393 77.832 173.785 81.64 173.785 93.2C173.785 103.876 168.073 108.568 162.497 109.044V118.224C172.969 117.816 184.121 110.472 184.121 93.2C184.121 74.364 171.541 68.584 162.497 68.176V77.356ZM160.457 68.176C151.005 68.584 138.833 74.84 138.833 93.2C138.833 109.996 149.713 117.748 160.457 118.224V109.044C154.745 108.5 149.169 103.604 149.169 93.2C149.169 81.844 155.357 77.832 160.457 77.356V68.176ZM209.353 108.16H201.329C203.029 103.604 203.641 97.076 203.641 88.236V78.24H209.353V69.4H193.713V87.148C193.713 101.7 193.441 107.208 186.165 108.16V128.56H196.093V117H209.353V108.16ZM211.393 117H223.905V128.56H233.833V108.16H227.305V69.4H211.393V78.24H217.445V108.16H211.393V117ZM252.039 72.528L237.215 117H247.007L249.319 109.792H265.163L262.375 101.904H251.903L256.799 86.128L252.039 72.528ZM253.059 69.4L269.855 117H280.191L263.395 69.4H253.059ZM294.291 69.4H284.975V84.972L287.831 104.284H291.571L294.291 84.972V69.4ZM294.359 117V107.548H285.111V117H294.359Z" fill="#48CCFD"/>
</svg>
